<svg xmlns="http://www.w3.org/2000/svg" width="640" height="480" viewBox="0 0 640 480" role="img" aria-label="Схема промышленного теплообменника">
  <defs>
    <linearGradient id="plate" x1="0" x2="1">
      <stop offset="0" stop-color="#e2e8f0" />
      <stop offset="1" stop-color="#cbd5f5" />
    </linearGradient>
    <linearGradient id="tube" x1="0" x2="1">
      <stop offset="0" stop-color="#38bdf8" />
      <stop offset="1" stop-color="#0ea5e9" />
    </linearGradient>
  </defs>
  <rect width="640" height="480" fill="#ffffff" />
  <rect x="70" y="90" width="360" height="300" rx="24" fill="url(#plate)" stroke="#94a3b8" stroke-width="3" />
  <rect x="110" y="120" width="280" height="240" rx="18" fill="#f8fafc" stroke="#cbd5f5" stroke-width="2" />
  <rect x="140" y="150" width="220" height="180" rx="12" fill="#ffffff" stroke="#e2e8f0" stroke-width="2" />
  <g stroke="#94a3b8" stroke-width="2" opacity="0.7">
    <line x1="170" y1="170" x2="330" y2="170" />
    <line x1="170" y1="210" x2="330" y2="210" />
    <line x1="170" y1="250" x2="330" y2="250" />
    <line x1="170" y1="290" x2="330" y2="290" />
  </g>
  <rect x="430" y="150" width="150" height="40" rx="20" fill="url(#tube)" />
  <rect x="430" y="230" width="150" height="40" rx="20" fill="url(#tube)" />
  <circle cx="430" cy="170" r="18" fill="#0ea5e9" />
  <circle cx="430" cy="250" r="18" fill="#0ea5e9" />
  <g fill="#94a3b8">
    <rect x="90" y="70" width="90" height="12" rx="6" />
    <rect x="310" y="400" width="90" height="12" rx="6" />
  </g>
</svg>
