<svg xmlns="http://www.w3.org/2000/svg" viewBox="0 0 24 24" fill="none" stroke="#000" stroke-width="1.75" stroke-linecap="round" stroke-linejoin="round">
  <path d="M6 10.8h2.7"/>
  <path d="M6 14.2h2.7"/>
  <path d="M15.8 4.2c-1.3 0-2.4.4-3.3 1.2-.9.8-1.4 1.9-1.4 3.1 0 1 .3 1.9.8 2.7.4.5.5 1.1.5 1.7 0 2.3-.8 4.4-2.2 6.4"/>
  <path d="M15.5 4.2c1.5 0 2.9.7 3.8 1.9.7 1 1.1 2.2 1.1 3.7 0 1.3-.4 2.4-1.1 3.4-.5.6-.8 1.4-.9 2.2-.1 1.4-.6 2.8-1.6 4"/>
  <path d="M14 8.1c.8.2 1.6.5 2.2 1"/>
  <path d="M13.4 20.2c1.3.6 2.8.6 4.1 0"/>
</svg>