<svg xmlns="http://www.w3.org/2000/svg" viewBox="0 0 800 800" width="800" height="800">
  <defs>
    <linearGradient id="rainbow" x1="0" y1="0" x2="1" y2="1">
      <stop offset="0%"  stop-color="#00D4FF"/>
      <stop offset="18%" stop-color="#00FFB3"/>
      <stop offset="38%" stop-color="#F4FF00"/>
      <stop offset="58%" stop-color="#FF8A00"/>
      <stop offset="78%" stop-color="#FF00D4"/>
      <stop offset="100%" stop-color="#6D28D9"/>
    </linearGradient>

    <radialGradient id="highlight" cx="35%" cy="25%" r="75%">
      <stop offset="0%" stop-color="rgba(255,255,255,0.55)"/>
      <stop offset="55%" stop-color="rgba(255,255,255,0.10)"/>
      <stop offset="100%" stop-color="rgba(255,255,255,0.00)"/>
    </radialGradient>

    <filter id="softGlow" x="-20%" y="-20%" width="140%" height="140%">
      <feGaussianBlur in="SourceGraphic" stdDeviation="6" result="blur"/>
      <feColorMatrix in="blur" type="matrix"
        values="1 0 0 0 0
                0 1 0 0 0
                0 0 1 0 0
                0 0 0 0.55 0" result="glow"/>
      <feMerge>
        <feMergeNode in="glow"/>
        <feMergeNode in="SourceGraphic"/>
      </feMerge>
    </filter>

    <clipPath id="fpClip">
      <path d="M400 78
               C270 78 165 190 165 330
               C165 505 250 655 400 732
               C550 655 635 505 635 330
               C635 190 530 78 400 78 Z"/>
    </clipPath>
  </defs>

  <g filter="url(#softGlow)" clip-path="url(#fpClip)">
    <rect x="0" y="0" width="800" height="800" fill="url(#rainbow)"/>
    <rect x="0" y="0" width="800" height="800" fill="url(#highlight)"/>

    <g fill="none" stroke="rgba(255,255,255,0.78)" stroke-linecap="round" stroke-width="3">
      <path d="M255 270 C295 175 505 175 545 270"/>
      <path d="M240 305 C285 205 515 205 560 305"/>
      <path d="M230 340 C280 245 520 245 570 340"/>
      <path d="M225 378 C278 290 522 290 575 378"/>

      <path d="M235 420 C300 330 520 330 565 435"/>
      <path d="M255 455 C330 370 510 370 545 485"/>
      <path d="M285 485 C345 430 475 420 515 520"/>
      <path d="M300 520 C350 490 430 485 480 560"/>

      <path d="M360 600
               C335 560 340 500 380 470
               C415 445 465 455 485 505
               C505 555 480 610 415 640
               C385 655 370 640 360 600 Z"
            stroke="rgba(255,255,255,0.62)" stroke-width="2.5"/>

      <path d="M245 520 C245 615 310 690 400 720"/>
      <path d="M555 520 C555 615 490 690 400 720"/>
      <path d="M275 555 C290 635 332 690 400 720"/>
      <path d="M525 555 C510 635 468 690 400 720"/>
    </g>
  </g>

  <path d="M400 78
           C270 78 165 190 165 330
           C165 505 250 655 400 732
           C550 655 635 505 635 330
           C635 190 530 78 400 78 Z"
        fill="none" stroke="rgba(15,23,42,0.10)" stroke-width="3"/>
</svg>
